<mxfile host="app.diagrams.net" modified="2023-05-26T02:15:39.740Z" agent="Mozilla/5.0 (Windows NT 10.0; Win64; x64) AppleWebKit/537.36 (KHTML, like Gecko) Chrome/113.0.0.0 Safari/537.36" version="21.1.1" etag="NNbzIW2RAOkimQlh2AL7" type="github">
  <diagram name="Page-1" id="OplYHhn2Q5elBCXiScx5">
    <mxGraphModel>
      <root>
        <mxCell id="0" />
        <mxCell id="1" parent="0" />
      </root>
    </mxGraphModel>
  </diagram>
</mxfile>
